<mxfile host="app.diagrams.net" agent="Mozilla/5.0 (Windows NT 10.0; Win64; x64) AppleWebKit/537.36 (KHTML, like Gecko) Chrome/141.0.0.0 Safari/537.36" version="28.2.8">
  <diagram name="Página-1" id="Y8Y-GzN4RDJBA8T14V5i">
    <mxGraphModel dx="1971" dy="811" grid="1" gridSize="10" guides="1" tooltips="1" connect="1" arrows="1" fold="1" page="1" pageScale="1" pageWidth="1169" pageHeight="827" math="0" shadow="0">
      <root>
        <mxCell id="0" />
        <mxCell id="1" parent="0" />
        <mxCell id="r6ukXJbj-G3i03R8Q8le-1" value="PROMOCIÓN" style="rounded=0;whiteSpace=wrap;html=1;" vertex="1" parent="1">
          <mxGeometry x="470" y="250" width="120" height="60" as="geometry" />
        </mxCell>
        <mxCell id="r6ukXJbj-G3i03R8Q8le-2" value="&lt;font style=&quot;font-size: 10px;&quot;&gt;PERTENECE&lt;/font&gt;" style="rhombus;whiteSpace=wrap;html=1;" vertex="1" parent="1">
          <mxGeometry x="490" y="130" width="80" height="70" as="geometry" />
        </mxCell>
        <mxCell id="r6ukXJbj-G3i03R8Q8le-53" value="" style="edgeStyle=orthogonalEdgeStyle;rounded=0;orthogonalLoop=1;jettySize=auto;html=1;" edge="1" parent="1" source="r6ukXJbj-G3i03R8Q8le-3" target="r6ukXJbj-G3i03R8Q8le-1">
          <mxGeometry relative="1" as="geometry" />
        </mxCell>
        <mxCell id="r6ukXJbj-G3i03R8Q8le-3" value="&lt;font style=&quot;font-size: 10px;&quot;&gt;PERTENECE&lt;/font&gt;" style="rhombus;whiteSpace=wrap;html=1;" vertex="1" parent="1">
          <mxGeometry x="660" y="245" width="80" height="70" as="geometry" />
        </mxCell>
        <mxCell id="r6ukXJbj-G3i03R8Q8le-4" value="&lt;font style=&quot;font-size: 10px;&quot;&gt;PERTENECE&lt;/font&gt;" style="rhombus;whiteSpace=wrap;html=1;" vertex="1" parent="1">
          <mxGeometry x="321" y="245" width="80" height="70" as="geometry" />
        </mxCell>
        <mxCell id="r6ukXJbj-G3i03R8Q8le-5" value="&lt;font style=&quot;font-size: 10px;&quot;&gt;TIENE&lt;/font&gt;" style="rhombus;whiteSpace=wrap;html=1;" vertex="1" parent="1">
          <mxGeometry x="490" y="359" width="80" height="70" as="geometry" />
        </mxCell>
        <mxCell id="r6ukXJbj-G3i03R8Q8le-6" value="CAMPUS" style="rounded=0;whiteSpace=wrap;html=1;" vertex="1" parent="1">
          <mxGeometry x="470" y="20" width="120" height="60" as="geometry" />
        </mxCell>
        <mxCell id="r6ukXJbj-G3i03R8Q8le-44" style="edgeStyle=orthogonalEdgeStyle;rounded=0;orthogonalLoop=1;jettySize=auto;html=1;exitX=0.5;exitY=1;exitDx=0;exitDy=0;entryX=0.5;entryY=0;entryDx=0;entryDy=0;" edge="1" parent="1" source="r6ukXJbj-G3i03R8Q8le-7" target="r6ukXJbj-G3i03R8Q8le-36">
          <mxGeometry relative="1" as="geometry" />
        </mxCell>
        <mxCell id="r6ukXJbj-G3i03R8Q8le-7" value="PROFESOR&lt;span style=&quot;color: rgba(0, 0, 0, 0); font-family: monospace; font-size: 0px; text-align: start; text-wrap-mode: nowrap;&quot;&gt;%3CmxGraphModel%3E%3Croot%3E%3CmxCell%20id%3D%220%22%2F%3E%3CmxCell%20id%3D%221%22%20parent%3D%220%22%2F%3E%3CmxCell%20id%3D%222%22%20value%3D%22PROMOCI%C3%93N%22%20style%3D%22rounded%3D0%3BwhiteSpace%3Dwrap%3Bhtml%3D1%3B%22%20vertex%3D%221%22%20parent%3D%221%22%3E%3CmxGeometry%20x%3D%22470%22%20y%3D%22250%22%20width%3D%22120%22%20height%3D%2260%22%20as%3D%22geometry%22%2F%3E%3C%2FmxCell%3E%3C%2Froot%3E%3C%2FmxGraphModel%3E&lt;/span&gt;" style="rounded=0;whiteSpace=wrap;html=1;" vertex="1" parent="1">
          <mxGeometry x="820" y="250" width="120" height="60" as="geometry" />
        </mxCell>
        <mxCell id="r6ukXJbj-G3i03R8Q8le-46" style="edgeStyle=orthogonalEdgeStyle;rounded=0;orthogonalLoop=1;jettySize=auto;html=1;exitX=1;exitY=0.5;exitDx=0;exitDy=0;entryX=0;entryY=0.5;entryDx=0;entryDy=0;endArrow=none;endFill=0;" edge="1" parent="1" source="r6ukXJbj-G3i03R8Q8le-8" target="r6ukXJbj-G3i03R8Q8le-37">
          <mxGeometry relative="1" as="geometry" />
        </mxCell>
        <mxCell id="r6ukXJbj-G3i03R8Q8le-8" value="VERTICAL" style="rounded=0;whiteSpace=wrap;html=1;" vertex="1" parent="1">
          <mxGeometry x="470" y="477" width="120" height="60" as="geometry" />
        </mxCell>
        <mxCell id="r6ukXJbj-G3i03R8Q8le-9" value="&lt;font style=&quot;font-size: 10px;&quot;&gt;PERTENECE&lt;/font&gt;" style="rhombus;whiteSpace=wrap;html=1;" vertex="1" parent="1">
          <mxGeometry x="321" y="471" width="80" height="70" as="geometry" />
        </mxCell>
        <mxCell id="r6ukXJbj-G3i03R8Q8le-10" value="PROYECTOS" style="rounded=0;whiteSpace=wrap;html=1;" vertex="1" parent="1">
          <mxGeometry x="121" y="480" width="120" height="60" as="geometry" />
        </mxCell>
        <mxCell id="r6ukXJbj-G3i03R8Q8le-11" value="&lt;font style=&quot;font-size: 10px;&quot;&gt;REALIZA&lt;/font&gt;" style="rhombus;whiteSpace=wrap;html=1;" vertex="1" parent="1">
          <mxGeometry x="141" y="359" width="80" height="70" as="geometry" />
        </mxCell>
        <mxCell id="r6ukXJbj-G3i03R8Q8le-51" style="edgeStyle=orthogonalEdgeStyle;rounded=0;orthogonalLoop=1;jettySize=auto;html=1;exitX=0.5;exitY=0;exitDx=0;exitDy=0;entryX=0.5;entryY=1;entryDx=0;entryDy=0;endArrow=none;endFill=0;" edge="1" parent="1" source="r6ukXJbj-G3i03R8Q8le-12" target="r6ukXJbj-G3i03R8Q8le-39">
          <mxGeometry relative="1" as="geometry" />
        </mxCell>
        <mxCell id="r6ukXJbj-G3i03R8Q8le-12" value="ALUMNOS" style="rounded=0;whiteSpace=wrap;html=1;" vertex="1" parent="1">
          <mxGeometry x="121" y="250" width="120" height="60" as="geometry" />
        </mxCell>
        <mxCell id="r6ukXJbj-G3i03R8Q8le-13" value="" style="endArrow=none;html=1;rounded=0;entryX=0.5;entryY=1;entryDx=0;entryDy=0;exitX=0.5;exitY=0;exitDx=0;exitDy=0;endFill=0;startArrow=classic;startFill=0;" edge="1" parent="1" source="r6ukXJbj-G3i03R8Q8le-8" target="r6ukXJbj-G3i03R8Q8le-5">
          <mxGeometry width="50" height="50" relative="1" as="geometry">
            <mxPoint x="510" y="509" as="sourcePoint" />
            <mxPoint x="560" y="459" as="targetPoint" />
          </mxGeometry>
        </mxCell>
        <mxCell id="r6ukXJbj-G3i03R8Q8le-16" value="" style="endArrow=classic;html=1;rounded=0;entryX=0.5;entryY=1;entryDx=0;entryDy=0;exitX=0;exitY=0.5;exitDx=0;exitDy=0;endFill=0;" edge="1" parent="1" source="r6ukXJbj-G3i03R8Q8le-7">
          <mxGeometry width="50" height="50" relative="1" as="geometry">
            <mxPoint x="840" y="260" as="sourcePoint" />
            <mxPoint x="740" y="280" as="targetPoint" />
          </mxGeometry>
        </mxCell>
        <mxCell id="r6ukXJbj-G3i03R8Q8le-17" value="" style="endArrow=none;html=1;rounded=0;" edge="1" parent="1">
          <mxGeometry width="50" height="50" relative="1" as="geometry">
            <mxPoint x="660" y="280" as="sourcePoint" />
            <mxPoint x="590" y="280" as="targetPoint" />
          </mxGeometry>
        </mxCell>
        <mxCell id="r6ukXJbj-G3i03R8Q8le-18" value="" style="endArrow=none;html=1;rounded=0;endFill=0;startArrow=classic;startFill=0;" edge="1" parent="1">
          <mxGeometry width="50" height="50" relative="1" as="geometry">
            <mxPoint x="470" y="279.5" as="sourcePoint" />
            <mxPoint x="400" y="280" as="targetPoint" />
          </mxGeometry>
        </mxCell>
        <mxCell id="r6ukXJbj-G3i03R8Q8le-19" value="" style="endArrow=none;html=1;rounded=0;entryX=0.5;entryY=1;entryDx=0;entryDy=0;exitX=0;exitY=0.5;exitDx=0;exitDy=0;startArrow=classic;startFill=0;" edge="1" parent="1">
          <mxGeometry width="50" height="50" relative="1" as="geometry">
            <mxPoint x="321" y="279.5" as="sourcePoint" />
            <mxPoint x="241" y="279.5" as="targetPoint" />
          </mxGeometry>
        </mxCell>
        <mxCell id="r6ukXJbj-G3i03R8Q8le-20" value="" style="endArrow=classicThin;html=1;rounded=0;endFill=0;" edge="1" parent="1">
          <mxGeometry width="50" height="50" relative="1" as="geometry">
            <mxPoint x="529.5" y="310" as="sourcePoint" />
            <mxPoint x="529.5" y="360" as="targetPoint" />
          </mxGeometry>
        </mxCell>
        <mxCell id="r6ukXJbj-G3i03R8Q8le-22" value="" style="endArrow=none;html=1;rounded=0;startArrow=classic;startFill=1;" edge="1" parent="1">
          <mxGeometry width="50" height="50" relative="1" as="geometry">
            <mxPoint x="529.5" y="200" as="sourcePoint" />
            <mxPoint x="529.5" y="250" as="targetPoint" />
          </mxGeometry>
        </mxCell>
        <mxCell id="r6ukXJbj-G3i03R8Q8le-23" value="" style="endArrow=none;html=1;rounded=0;endFill=0;startArrow=block;startFill=1;" edge="1" parent="1">
          <mxGeometry width="50" height="50" relative="1" as="geometry">
            <mxPoint x="529.5" y="80" as="sourcePoint" />
            <mxPoint x="529.5" y="130" as="targetPoint" />
          </mxGeometry>
        </mxCell>
        <mxCell id="r6ukXJbj-G3i03R8Q8le-25" value="" style="endArrow=classic;html=1;rounded=0;endFill=0;" edge="1" parent="1">
          <mxGeometry width="50" height="50" relative="1" as="geometry">
            <mxPoint x="180.5" y="309" as="sourcePoint" />
            <mxPoint x="180.5" y="359" as="targetPoint" />
          </mxGeometry>
        </mxCell>
        <mxCell id="r6ukXJbj-G3i03R8Q8le-26" value="" style="endArrow=none;html=1;rounded=0;startArrow=classic;startFill=0;" edge="1" parent="1">
          <mxGeometry width="50" height="50" relative="1" as="geometry">
            <mxPoint x="471" y="506.5" as="sourcePoint" />
            <mxPoint x="401" y="507" as="targetPoint" />
          </mxGeometry>
        </mxCell>
        <mxCell id="r6ukXJbj-G3i03R8Q8le-27" value="" style="endArrow=none;html=1;rounded=0;entryX=0.5;entryY=1;entryDx=0;entryDy=0;exitX=0;exitY=0.5;exitDx=0;exitDy=0;startArrow=classic;startFill=0;" edge="1" parent="1">
          <mxGeometry width="50" height="50" relative="1" as="geometry">
            <mxPoint x="321" y="506.5" as="sourcePoint" />
            <mxPoint x="241" y="506.5" as="targetPoint" />
          </mxGeometry>
        </mxCell>
        <mxCell id="r6ukXJbj-G3i03R8Q8le-28" value="" style="endArrow=classic;html=1;rounded=0;endFill=0;" edge="1" parent="1">
          <mxGeometry width="50" height="50" relative="1" as="geometry">
            <mxPoint x="180.5" y="429" as="sourcePoint" />
            <mxPoint x="180.5" y="479" as="targetPoint" />
          </mxGeometry>
        </mxCell>
        <mxCell id="r6ukXJbj-G3i03R8Q8le-29" value="&lt;font style=&quot;font-size: 15px;&quot;&gt;N:M&lt;/font&gt;" style="text;html=1;whiteSpace=wrap;strokeColor=none;fillColor=none;align=center;verticalAlign=middle;rounded=0;" vertex="1" parent="1">
          <mxGeometry x="580" y="150" width="60" height="30" as="geometry" />
        </mxCell>
        <mxCell id="r6ukXJbj-G3i03R8Q8le-30" value="&lt;font style=&quot;font-size: 15px;&quot;&gt;N:M&lt;/font&gt;" style="text;html=1;whiteSpace=wrap;strokeColor=none;fillColor=none;align=center;verticalAlign=middle;rounded=0;" vertex="1" parent="1">
          <mxGeometry x="670" y="210" width="60" height="30" as="geometry" />
        </mxCell>
        <mxCell id="r6ukXJbj-G3i03R8Q8le-31" value="&lt;font style=&quot;font-size: 15px;&quot;&gt;N:M&lt;/font&gt;" style="text;html=1;whiteSpace=wrap;strokeColor=none;fillColor=none;align=center;verticalAlign=middle;rounded=0;" vertex="1" parent="1">
          <mxGeometry x="585" y="379" width="60" height="30" as="geometry" />
        </mxCell>
        <mxCell id="r6ukXJbj-G3i03R8Q8le-32" value="&lt;font style=&quot;font-size: 15px;&quot;&gt;N:1&lt;/font&gt;" style="text;html=1;whiteSpace=wrap;strokeColor=none;fillColor=none;align=center;verticalAlign=middle;rounded=0;" vertex="1" parent="1">
          <mxGeometry x="331" y="441" width="60" height="30" as="geometry" />
        </mxCell>
        <mxCell id="r6ukXJbj-G3i03R8Q8le-33" value="&lt;font style=&quot;font-size: 15px;&quot;&gt;N:M&lt;/font&gt;" style="text;html=1;whiteSpace=wrap;strokeColor=none;fillColor=none;align=center;verticalAlign=middle;rounded=0;" vertex="1" parent="1">
          <mxGeometry x="230" y="384" width="60" height="30" as="geometry" />
        </mxCell>
        <mxCell id="r6ukXJbj-G3i03R8Q8le-34" value="&lt;font style=&quot;font-size: 15px;&quot;&gt;N:M&lt;/font&gt;" style="text;html=1;whiteSpace=wrap;strokeColor=none;fillColor=none;align=center;verticalAlign=middle;rounded=0;" vertex="1" parent="1">
          <mxGeometry x="331" y="200" width="60" height="30" as="geometry" />
        </mxCell>
        <mxCell id="r6ukXJbj-G3i03R8Q8le-35" value="&lt;font style=&quot;font-size: 10px;&quot;&gt;ID_CAMPUS&lt;/font&gt;&lt;div&gt;&lt;font style=&quot;font-size: 10px;&quot;&gt;NOMBRE_CAMPUS&lt;/font&gt;&lt;/div&gt;" style="ellipse;whiteSpace=wrap;html=1;" vertex="1" parent="1">
          <mxGeometry x="637" y="1" width="130" height="80" as="geometry" />
        </mxCell>
        <mxCell id="r6ukXJbj-G3i03R8Q8le-36" value="&lt;span style=&quot;font-size: 10px;&quot;&gt;ID_PROFESOR&lt;/span&gt;&lt;div&gt;&lt;span style=&quot;font-size: 10px;&quot;&gt;NOMBRE_PROFESOR&lt;/span&gt;&lt;/div&gt;&lt;div&gt;&lt;span style=&quot;font-size: 10px;&quot;&gt;ROL&lt;/span&gt;&lt;/div&gt;" style="ellipse;whiteSpace=wrap;html=1;" vertex="1" parent="1">
          <mxGeometry x="820" y="340" width="130" height="80" as="geometry" />
        </mxCell>
        <mxCell id="r6ukXJbj-G3i03R8Q8le-37" value="&lt;span style=&quot;font-size: 10px;&quot;&gt;ID_VERTICAL&lt;/span&gt;&lt;div&gt;&lt;span style=&quot;font-size: 10px;&quot;&gt;NOMBRE_VERTICAL&lt;br&gt;&lt;/span&gt;&lt;div&gt;&lt;span style=&quot;font-size: 10px;&quot;&gt;ID_PROYECTO&lt;/span&gt;&lt;/div&gt;&lt;/div&gt;" style="ellipse;whiteSpace=wrap;html=1;" vertex="1" parent="1">
          <mxGeometry x="635" y="466" width="132" height="83" as="geometry" />
        </mxCell>
        <mxCell id="r6ukXJbj-G3i03R8Q8le-38" value="&lt;span style=&quot;font-size: 10px;&quot;&gt;ID_PROMOCION&lt;/span&gt;&lt;div&gt;&lt;span style=&quot;font-size: 10px;&quot;&gt;NOMBRE_PROMO&lt;/span&gt;&lt;/div&gt;&lt;div&gt;&lt;span style=&quot;font-size: 10px;&quot;&gt;FECHA_PROMO&lt;/span&gt;&lt;/div&gt;&lt;div&gt;&lt;span style=&quot;font-size: 10px;&quot;&gt;ID_CAMPUS&lt;/span&gt;&lt;/div&gt;&lt;div&gt;&lt;span style=&quot;font-size: 10px;&quot;&gt;ID_PROFESOR&lt;/span&gt;&lt;/div&gt;&lt;div&gt;&lt;span style=&quot;font-size: 10px;&quot;&gt;ID_VERTICAL&lt;/span&gt;&lt;/div&gt;&lt;div&gt;&lt;span style=&quot;font-size: 10px;&quot;&gt;MODALIDAD&lt;/span&gt;&lt;span style=&quot;font-size: 10px;&quot;&gt;&lt;/span&gt;&lt;/div&gt;" style="ellipse;whiteSpace=wrap;html=1;" vertex="1" parent="1">
          <mxGeometry x="700" y="90" width="200" height="110" as="geometry" />
        </mxCell>
        <mxCell id="r6ukXJbj-G3i03R8Q8le-39" value="&lt;span style=&quot;font-size: 10px;&quot;&gt;ID_ALUMNO&lt;/span&gt;&lt;div&gt;&lt;span style=&quot;font-size: 10px;&quot;&gt;NOMBRE_ALUMNO&lt;/span&gt;&lt;/div&gt;&lt;div&gt;&lt;span style=&quot;font-size: 10px;&quot;&gt;EMAIL:ALUMNO&lt;/span&gt;&lt;/div&gt;&lt;div&gt;&lt;span style=&quot;font-size: 10px;&quot;&gt;ID_PROMOCION&lt;/span&gt;&lt;/div&gt;" style="ellipse;whiteSpace=wrap;html=1;" vertex="1" parent="1">
          <mxGeometry x="111" y="120" width="139" height="80" as="geometry" />
        </mxCell>
        <mxCell id="r6ukXJbj-G3i03R8Q8le-40" value="&lt;span style=&quot;font-size: 10px;&quot;&gt;ID_PROYECTO&lt;/span&gt;&lt;div&gt;&lt;span style=&quot;font-size: 10px;&quot;&gt;ID_ALUMNO&lt;/span&gt;&lt;/div&gt;&lt;div&gt;&lt;span style=&quot;font-size: 10px;&quot;&gt;PROYECTO_HLF&lt;/span&gt;&lt;/div&gt;&lt;div&gt;&lt;span style=&quot;font-size: 10px;&quot;&gt;PROYECTO_EDA&lt;/span&gt;&lt;/div&gt;&lt;div&gt;&lt;span style=&quot;font-size: 10px;&quot;&gt;PROYECTO_BBDD&lt;/span&gt;&lt;/div&gt;&lt;div&gt;&lt;span style=&quot;font-size: 10px;&quot;&gt;PROYECTO_ML&lt;/span&gt;&lt;/div&gt;&lt;div&gt;&lt;span style=&quot;font-size: 10px;&quot;&gt;PROYECTO_DEPLOYTMENT&lt;/span&gt;&lt;/div&gt;&lt;div&gt;&lt;span style=&quot;font-size: 10px;&quot;&gt;PROYECTO_WEBREV&lt;/span&gt;&lt;/div&gt;&lt;div&gt;&lt;span style=&quot;font-size: 10px;&quot;&gt;PROYECTO_FRONTEND&lt;/span&gt;&lt;/div&gt;&lt;div&gt;&lt;span style=&quot;font-size: 10px;&quot;&gt;PROYECTO_BACKEND&lt;/span&gt;&lt;/div&gt;&lt;div&gt;&lt;span style=&quot;font-size: 10px;&quot;&gt;PROYECTO_REACT&lt;/span&gt;&lt;/div&gt;&lt;div&gt;&lt;span style=&quot;font-size: 10px;&quot;&gt;PROYECTO_FULLSTACK&lt;/span&gt;&lt;/div&gt;&lt;div&gt;&lt;span style=&quot;font-size: 10px;&quot;&gt;&lt;br&gt;&lt;/span&gt;&lt;/div&gt;" style="ellipse;whiteSpace=wrap;html=1;" vertex="1" parent="1">
          <mxGeometry x="90" y="560" width="329" height="230" as="geometry" />
        </mxCell>
        <mxCell id="r6ukXJbj-G3i03R8Q8le-41" value="" style="endArrow=none;html=1;rounded=0;endFill=0;" edge="1" parent="1" target="r6ukXJbj-G3i03R8Q8le-38">
          <mxGeometry width="50" height="50" relative="1" as="geometry">
            <mxPoint x="590" y="250" as="sourcePoint" />
            <mxPoint x="640" y="200" as="targetPoint" />
          </mxGeometry>
        </mxCell>
        <mxCell id="r6ukXJbj-G3i03R8Q8le-42" value="" style="endArrow=none;html=1;rounded=0;exitX=1;exitY=0.5;exitDx=0;exitDy=0;entryX=0.008;entryY=0.612;entryDx=0;entryDy=0;entryPerimeter=0;endFill=0;" edge="1" parent="1" source="r6ukXJbj-G3i03R8Q8le-6" target="r6ukXJbj-G3i03R8Q8le-35">
          <mxGeometry width="50" height="50" relative="1" as="geometry">
            <mxPoint x="502" y="120" as="sourcePoint" />
            <mxPoint x="635" y="53" as="targetPoint" />
          </mxGeometry>
        </mxCell>
        <mxCell id="r6ukXJbj-G3i03R8Q8le-49" style="edgeStyle=orthogonalEdgeStyle;rounded=0;orthogonalLoop=1;jettySize=auto;html=1;exitX=0.5;exitY=1;exitDx=0;exitDy=0;entryX=0.367;entryY=0.002;entryDx=0;entryDy=0;entryPerimeter=0;endArrow=none;endFill=0;" edge="1" parent="1" source="r6ukXJbj-G3i03R8Q8le-10" target="r6ukXJbj-G3i03R8Q8le-40">
          <mxGeometry relative="1" as="geometry" />
        </mxCell>
      </root>
    </mxGraphModel>
  </diagram>
</mxfile>
